<svg width="20" height="20" viewBox="0 0 20 20" fill="none" xmlns="http://www.w3.org/2000/svg">
<g clip-path="url(#clip0_0_190)">
<path fill-rule="evenodd" clip-rule="evenodd" d="M0.833328 2.36498C0.833328 1.95876 0.9947 1.56917 1.28194 1.28193C1.56919 0.994687 1.95877 0.833315 2.365 0.833315H17.6333C17.8346 0.832986 18.034 0.872367 18.2201 0.949204C18.4062 1.02604 18.5753 1.13882 18.7177 1.2811C18.8601 1.42337 18.9731 1.59233 19.0501 1.77832C19.1272 1.96431 19.1668 2.16367 19.1667 2.36498V17.6333C19.1669 17.8347 19.1274 18.0341 19.0505 18.2202C18.9735 18.4062 18.8607 18.5753 18.7183 18.7177C18.576 18.8602 18.407 18.9731 18.2209 19.0501C18.0349 19.1272 17.8355 19.1668 17.6342 19.1666H2.365C2.16378 19.1666 1.96454 19.127 1.77866 19.05C1.59277 18.973 1.42389 18.8601 1.28165 18.7177C1.13941 18.5754 1.0266 18.4065 0.94968 18.2205C0.872756 18.0346 0.833219 17.8354 0.833328 17.6341V2.36498ZM8.09 7.82332H10.5725V9.06998C10.9308 8.35332 11.8475 7.70832 13.225 7.70832C15.8658 7.70832 16.4917 9.13582 16.4917 11.755V16.6066H13.8192V12.3516C13.8192 10.86 13.4608 10.0183 12.5508 10.0183C11.2883 10.0183 10.7633 10.9258 10.7633 12.3516V16.6066H8.09V7.82332ZM3.50666 16.4925H6.18V7.70832H3.50666V16.4916V16.4925ZM6.5625 4.84332C6.56754 5.07221 6.52681 5.2998 6.4427 5.51274C6.35858 5.72568 6.23279 5.91968 6.07269 6.08334C5.91259 6.24701 5.72141 6.37704 5.51037 6.46582C5.29934 6.5546 5.07269 6.60033 4.84375 6.60033C4.6148 6.60033 4.38815 6.5546 4.17712 6.46582C3.96608 6.37704 3.7749 6.24701 3.6148 6.08334C3.4547 5.91968 3.32891 5.72568 3.2448 5.51274C3.16069 5.2998 3.11995 5.07221 3.125 4.84332C3.13489 4.39403 3.32032 3.96647 3.64157 3.65222C3.96282 3.33797 4.39435 3.162 4.84375 3.162C5.29314 3.162 5.72467 3.33797 6.04592 3.65222C6.36717 3.96647 6.5526 4.39403 6.5625 4.84332Z" fill="black"/>
</g>
<defs>
<clipPath id="clip0_0_190">
<rect width="20" height="20" fill="white"/>
</clipPath>
</defs>
</svg>
